<svg id="Layer_1" xmlns="http://www.w3.org/2000/svg" viewBox="0 0 195.7 69.6"><style>.st0{opacity:.93}.st0,.st1{fill:#FFF}</style><path class="st0" d="M5.4.6H0v62.6c0 3 2.4 5.4 5.4 5.4s5.4-2.4 5.4-5.4V6C10.8 3 8.4.6 5.4.6zM191.2 60.9l-26.7-57c-.6-1.3-1.7-2.3-3.1-2.8-1.4-.5-2.8-.4-4.1.2-1.3.6-2.3 1.7-2.8 3.1-.5 1.4-.4 2.8.2 4.1l26.7 57c.9 1.9 2.8 3.1 4.9 3.1h8.5l-3.6-7.7z"/><path class="st0" d="M44.5 57.8H5.4c-3 0-5.4 2.4-5.4 5.4s2.4 5.4 5.4 5.4H50v-5.4c-.1-2.9-2.5-5.4-5.5-5.4zM114.4 29.4H88.8c-3 0-5.5 2.4-5.5 5.5v5.5h31.1c3 0 5.5-2.4 5.5-5.5s-2.5-5.5-5.5-5.5zM164.7 4.4c-.5-1.4-1.5-2.5-2.8-3.1-1.3-.6-2.8-.7-4.1-.2-1.4.5-2.4 1.5-3.1 2.8l-30.3 64.7h8.5c2.1 0 4-1.2 4.9-3.1l26.7-57c.6-1.3.7-2.8.2-4.1z"/><path class="st0" d="M114.4 29.4c-3 0-5.5 2.4-5.5 5.5C109 47.6 98.6 58 85.8 58S62.5 47.6 62.5 34.8 73 11.6 85.8 11.6c6.1 0 11.8 2.3 16.2 6.6 2.1 2.1 5.6 2 7.6 0l4-3-.6-.8c-1-1.4-2.2-2.7-3.4-3.9l-.1-.1c-.4-.4-.8-.7-1.1-1h-.1c-4.4-3.9-9.8-6.6-15.6-7.8h-.1c-.1 0-.3-.1-.4-.1-.3-.1-.7-.1-1-.2-.3 0-.6-.1-.9-.1-.3 0-.6-.1-.9-.1-.4 0-.7-.1-1.1-.1h-.7c-.7 0-1.3-.1-1.8-.1C66.9.7 51.6 16 51.6 34.8s15.3 34.1 34.1 34.1 34.1-15.3 34.1-34.1c.1-3-2.4-5.4-5.4-5.4z"/><path class="st1" d="M10.8 63.3v-5.4H5.4c-3 0-5.4 2.4-5.4 5.4s2.4 5.4 5.4 5.4 5.4-2.4 5.4-5.4zM109 34.8c0 1.9-.2 3.7-.7 5.5h6.1c3 0 5.5-2.4 5.5-5.5s-2.4-5.5-5.5-5.5-5.4 2.5-5.4 5.5zM164.5 3.9c-.1-.1-.1-.2-.2-.3l-.1-.1c-.1-.1-.1-.2-.2-.3 0 0 0-.1-.1-.1-.1-.1-.2-.2-.2-.3l-.1-.1-.2-.2-.2-.2s-.1-.1-.2-.1c-.1-.1-.2-.1-.3-.2 0 0-.1 0-.1-.1-.1-.1-.2-.2-.3-.2h-.1c-.1-.1-.3-.1-.4-.2-.1 0-.1-.1-.2-.1s-.2-.1-.3-.1c-.1 0-.3-.1-.4-.1h-.1c-.1 0-.3-.1-.4-.1h-.5H158.5c-.1 0-.2 0-.3.1-.1 0-.1 0-.2.1-.1 0-.2.1-.3.1-.1 0-.2.1-.4.1 0 0-.1 0-.1.1-.1.1-.3.1-.4.2-.1.1-.3.2-.4.3h-.1c-.1.1-.2.2-.3.2l-.1.1-.2.2-.2.2-.1.1c-.1.1-.1.2-.2.3 0 0 0 .1-.1.1-.1.1-.2.2-.2.3 0 0 0 .1-.1.1-.1.1-.1.2-.2.3-.1.2-.1.3-.2.5-.5 1.4-.4 2.8.2 4.1l4.9 10.5 4.9-10.5c.6-1.3.7-2.8.2-4.1 0-.3 0-.4-.1-.6z"/></svg>