<svg xmlns="http://www.w3.org/2000/svg" viewBox="0 0 144 144"><path d="M111.8 142.5H32.2c-17 0-30.7-13.7-30.7-30.7V1.5h110.3c17 0 30.7 13.7 30.7 30.7v79.6c0 17-13.7 30.7-30.7 30.7z" fill="#fff"/><path d="M123.6 71.4a50.6 50.6 0 0 1-50.5 50.5l-3.5-.1a46 46 0 0 1-15.1-3.4 50.3 50.3 0 0 1-30.1-60.2 50.8 50.8 0 0 1 69.7-32.7 50.7 50.7 0 0 1 29.5 45.9z" fill="#313941"/><path d="M123 63.5a56.7 56.7 0 0 1-98.6-5.4 50.8 50.8 0 0 1 69.7-32.7A50.7 50.7 0 0 1 123 63.5z" fill="#4b5760"/><path d="M110.8 37.7a35.9 35.9 0 0 1-71.3-3.9 50.2 50.2 0 0 1 71.3 3.9z" fill="#6e7d89"/><path d="M95.5 32.8a20.2 20.2 0 0 1-40.5 0c0-3.4.8-6.6 2.3-9.4a51.7 51.7 0 0 1 36.8 2c.9 2.3 1.4 4.8 1.4 7.4z" fill="#a9d8e7"/><path d="M80.1 34.7h-9.7l-22.5 80.4c2.1 1.2 4.3 2.3 6.6 3.2L60.2 98l10.3 11.9-9.2 10.6c2.7.7 5.6 1.1 8.4 1.3l5.5-6.3 5.1 6c2.7-.4 5.4-1 8-1.8l-8.3-9.6 10.3-11.9 5.2 18.6c2.2-1.1 4.4-2.4 6.4-3.8L80.1 34.7zm-4.8 9.4l5.4 19.5-5.4 7.6-5.5-7.7 5.5-19.4zm-8 28.3l3.5 5-8.1 11.4 4.6-16.4zm7.9 32l-8-9.4 8.1-11.4L83.4 95l-8.2 9.4zm4.5-27l3.5-4.9 4.5 16-8-11.1z" fill="#eaeaea"/><path d="M83.2 32.8c0 3.5-2.3 6.5-5.4 7.6a8 8 0 0 1-10.6-7.6 8 8 0 0 1 10.6-7.6 8 8 0 0 1 5.4 7.6z" fill="#c3353c"/><path d="M83.2 32.8c0 3.5-2.3 6.5-5.4 7.6a8 8 0 0 1-5.4-7.6c0-3.5 2.3-6.5 5.4-7.6a8 8 0 0 1 5.4 7.6z" fill="#dd7680"/></svg>