<svg xmlns="http://www.w3.org/2000/svg" width="448" height="512"><path d="M4.7 116.7l80-80a16 16 0 0 1 22.6 0l80 80A16 16 0 0 1 176 144h-48v320a16 16 0 0 1-16 16H80a16 16 0 0 1-16-16V144H16a16 16 0 0 1-11.3-27.3zm301.7 98.6a12 12 0 0 1-11.6 8.7h-35.7c-8.2 0-14-8-11.3-15.9l57-168a12 12 0 0 1 11.4-8.1h39.6a12 12 0 0 1 11.3 8.1l57.1 168A12 12 0 0 1 413 224H377a12 12 0 0 1-11.5-8.6l-8.3-28.3h-42.8l-8.1 28.2zm22.8-78.7h13.4l-6.6-23-6.8 23zM341.8 424l67.5-95.7a12 12 0 0 0 2.1-6.9V300a12 12 0 0 0-12-12H274.5a12 12 0 0 0-12 12v29a12 12 0 0 0 12 12H331l-2.3 3-67.2 95.3a12 12 0 0 0-2.2 6.9V468a12 12 0 0 0 12 12h129.4a12 12 0 0 0 12-12v-29a12 12 0 0 0-12-12h-61.2l2.3-3z" fill="#FFF"/></svg>