<svg id="Layer_1" xmlns="http://www.w3.org/2000/svg" viewBox="0 0 144 144"><style>.st5{fill:#007a9f}.st6{fill:#00465f}</style><path d="M111.8 142.5H32.2c-17 0-30.7-13.7-30.7-30.7V1.5h110.3c17 0 30.7 13.7 30.7 30.7v79.6c0 17-13.7 30.7-30.7 30.7z" fill="#fff"/><path d="M111.5 48.3v69a3 3 0 0 1-3 3H36.9a3 3 0 0 1-3-3V21.5a3 3 0 0 1 3-3h44.8l29.8 29.8z" fill="#ececf1"/><path d="M111.5 48.3v69a3 3 0 0 1-3 3H72.7V18.5h9l29.8 29.8z" fill="#d3d3d8"/><path d="M62 63.3l5.5-5.5a2.9 2.9 0 0 0 0-4.2 2.9 2.9 0 0 0-4.2 0L57.8 59l-5.5-5.5a2.9 2.9 0 0 0-4.2 0 2.9 2.9 0 0 0 0 4.2l5.5 5.5-5.5 5.5a2.9 2.9 0 0 0 0 4.2 2.9 2.9 0 0 0 4.2 0l5.5-5.5 5.5 5.5a2.9 2.9 0 0 0 4.2 0 2.9 2.9 0 0 0 0-4.2L62 63.3z" fill="#ff728b"/><path d="M84.6 72.2c-.8 0-1.5-.3-2.1-.9l-6-6a2.9 2.9 0 0 1 0-4.2 2.9 2.9 0 0 1 4.2 0l3.9 3.9 9.8-9.8a2.9 2.9 0 0 1 4.2 0 2.9 2.9 0 0 1 0 4.2L86.8 71.3c-.6.6-1.4.9-2.2.9z" fill="#00ceee"/><path class="st5" d="M66.7 84.2H48.8a3 3 0 0 1-3-3 3 3 0 0 1 3-3h17.9a3 3 0 0 1 3 3 3 3 0 0 1-3 3zM66.7 96.1H48.8c-1.6 0-3-1.3-3-3s1.3-3 3-3h17.9c1.6 0 3 1.3 3 3s-1.3 3-3 3zM66.7 108H48.8a3 3 0 0 1-3-3 3 3 0 0 1 3-3h17.9a3 3 0 0 1 3 3 3 3 0 0 1-3 3z"/><path class="st6" d="M96.6 96.1H78.7c-1.6 0-3-1.3-3-3s1.3-3 3-3h17.9c1.6 0 3 1.3 3 3s-1.4 3-3 3zM96.6 84.2H78.7a3 3 0 0 1-3-3 3 3 0 0 1 3-3h17.9a3 3 0 0 1 3 3 3 3 0 0 1-3 3z"/><path d="M110.6 43.2L86.8 19.4c-.6-.6-1.3-.9-2.1-.9h-3v26.9a3 3 0 0 0 3 3h26.9v-3c-.1-.8-.4-1.6-1-2.2z" fill="#babac0"/></svg>