<svg version="1.1" id="Layer_1" xmlns="http://www.w3.org/2000/svg" x="0" y="0" viewBox="0 0 144 144" xml:space="preserve"><style>.st5{fill:#ececf1}.st6{fill:#00ceee}.st7{fill:#057ca0}</style><path d="M111.8 142.5H32.2c-17 0-30.7-13.7-30.7-30.7V1.5h110.3c17 0 30.7 13.7 30.7 30.7v79.6c0 17-13.7 30.7-30.7 30.7z" fill="#fff"/><circle cx="72" cy="72" r="52" fill="#36424b"/><path d="M123.9 74.2l-14.3-14.3-.5 1.1-22.7-22.7L67 57.7l8.7 8.7L70.9 79 53.5 61.5 35.6 77.8l8.3 8.3-8.8 22.6C44.6 118.2 57.6 124 72 124c28 0 50.8-22.1 51.9-49.8z" fill="#242d33"/><path fill="#d51f35" d="M67 57.7l-10.9-11 5.3-5.3L67 47l14.1-14 5.3 5.3z"/><path fill="#aa0521" d="M81.1 33L72 42.1v10.6l14.4-14.4z"/><circle class="st5" cx="43.3" cy="68.3" r="12.2"/><path class="st5" d="M48.7 82.8H38c-6.3 0-11.6 4.6-12.5 10.7l-.2 1.3c6.3 12.9 17.8 22.8 31.7 27h7.7l-3.5-28.3c-1-6.2-6.3-10.7-12.5-10.7z"/><circle class="st5" cx="100.7" cy="68.3" r="12.2"/><path class="st5" d="M118.6 93.5c-1-6.2-6.3-10.7-12.5-10.7H95.3c-6.3 0-11.6 4.6-12.5 10.7l-3.5 28.3H87c13.9-4.2 25.4-14.1 31.7-27l-.1-1.3z"/><circle class="st6" cx="72" cy="72.6" r="13.2"/><g><path class="st7" d="M72 59.3v26.5c7.3 0 13.2-5.9 13.2-13.2 0-7.3-5.9-13.3-13.2-13.3z"/></g><g><path class="st6" d="M69 123.9h6c6.9-.4 13.4-2.1 19.4-4.9l-3-19.1c-1-6.7-6.8-11.6-13.6-11.6H66.2c-6.8 0-12.5 4.9-13.6 11.6l-3 19.1c6 2.8 12.5 4.5 19.4 4.9z"/></g><g><path class="st7" d="M94.3 119l-3-19.1c-1-6.7-6.8-11.6-13.6-11.6H72v35.6h3c6.9-.4 13.4-2.1 19.3-4.9z"/></g></svg>