<svg xmlns="http://www.w3.org/2000/svg" viewBox="0 0 150.6 145.4"><style>.st0{fill:#323e48}.st1{fill:#96daea}.st2{fill:#db0032}.st3{display:none}.st4{display:inline}.st5{fill:#fff}</style><g id="Layer_7"><path class="st0" d="M113.8 129.6h-84v-113h65l19 19v46.6h-4.3V37.4L93 20.9H34.1v104.4h75.4v-11.1h4.3z"/><path class="st0" d="M111.6 38.6H91.7V18.7h4.4v15.6h15.5zM44 94.7h27.8V99H44zM44 103.4h55.7v4.3H44zM44 112h55.7v4.3H44z"/><g><path class="st1" d="M90.8 61.7a18.8 18.8 0 1 1-37.6 0 18.8 18.8 0 0 1 37.6 0z"/><path class="st2" d="M72.9 56.2a6.5 6.5 0 1 1-13 0c0-3.6 2.9-6.5 6.5-6.5a6.4 6.4 0 0 1 6.5 6.5zM79 65.7a3 3 0 0 1-3 3 3 3 0 0 1-3-3 3 3 0 0 1 3-3 3 3 0 0 1 3 3z"/><path class="st0" d="M72 88.5a26.5 26.5 0 0 1-26.7-26.7 26.8 26.8 0 0 1 53.6 0A27 27 0 0 1 72 88.5zm0-49.2a22.4 22.4 0 1 0 0 44.9 22.4 22.4 0 0 0 0-44.9z"/><path transform="rotate(-45 92 81.7)" class="st0" d="M89.8 78h4.3v7.4h-4.3z"/><path class="st0" d="M112 108.8c-1.9 0-3.7-.7-5-2.1L88 87.8l10-10 19 18.9a7.1 7.1 0 0 1 2.1 5c0 1.9-.7 3.7-2.1 5a6.7 6.7 0 0 1-5 2.1zm-17.8-21l15.9 15.9c1 1 2.8 1 3.9 0 .5-.5.8-1.2.8-1.9s-.3-1.4-.8-1.9l-15.9-16-3.9 3.9z"/></g></g><g id="Layer_8" class="st3"><g class="st4"><path class="st0" d="M94.1 137.1H55.3v-13h5v8h28.8v-8h5z"/><path class="st0" d="M48.1 132.1h53.1v5H48.1zM134.7 106.4h-120V30.1c0-1.8.7-3.4 1.9-4.6a6.6 6.6 0 0 1 4.6-1.9h14.9v5H21.3c-.2 0-.7.1-1.1.4-.3.3-.5.7-.5 1.1v71.3h110V30.1c0-.4-.2-.8-.5-1.1-.4-.4-.9-.5-1.1-.5h-14.9v-5h14.9c1.8 0 3.4.7 4.6 1.9a6.6 6.6 0 0 1 1.9 4.6v76.4z"/><path class="st0" d="M46.2 23.5h10v5h-10z"/><path class="st1" d="M26.2 35h10v59.9h-10zM46.2 35h10v59.9h-10zM113.2 35h10v59.9h-10z"/><path class="st0" d="M128.1 119.9H21.3c-1.8 0-3.4-.7-4.6-1.9a6.6 6.6 0 0 1-1.9-4.6v-12h120v12c0 1.8-.7 3.4-1.9 4.6a7.3 7.3 0 0 1-4.8 1.9zM19.7 106.4v7c0 .4.2.8.5 1.1.4.4.9.5 1.1.5h106.9c.2 0 .7-.1 1.1-.4.3-.3.5-.7.5-1.1v-7H19.7zM43.9 27l-2.7-6-2.7 6-4.6-2 7.3-16.1L48.5 25z"/><path class="st0" d="M48.7 94.9h-5V28.5h-5v66.4h-5V26c0-1.4 1.1-2.5 2.5-2.5h10c1.4 0 2.5 1.1 2.5 2.5v68.9zM115.7 94.9h-5V27L99.5 15.8H58.7v79.1h-5V10.8h47.9L115.7 25z"/><path class="st0" d="M113.2 28.5H98V13.3h5v10.2h10.2z"/><g><path class="st2" d="M84.7 35a15 15 0 0 0-4 29.4l4-8.5 4 8.5a15 15 0 0 0-4-29.4z"/><path class="st0" d="M82.2 74.7h5v10.6h-5z"/><path class="st0" d="M97.4 77.2H72L84.7 50l12.7 27.2zm-17.6-5h9.7l-4.9-10.4-4.8 10.4z"/></g></g></g><g id="Layer_9" class="st3"><g class="st4"><path class="st2" d="M73.1 33.9l-5.6-5.7 3-3 2.6 2.6 5-5 3.1 3z"/><path class="st0" d="M74.3 41.7a14 14 0 1 1 0-28.2 14 14 0 0 1 0 28.2zm0-23.9a9.8 9.8 0 1 0 0 19.6 9.8 9.8 0 0 0 0-19.6z"/><path class="st1" d="M47 45.1h54.6v67.7H47z"/><path class="st0" d="M65.6 119.5h17.5v4.3H65.6z"/><path class="st0" d="M94.3 132.6H54.4a9.6 9.6 0 0 1-9.5-9.5V34.9c0-5.2 4.3-9.5 9.5-9.5h8v4.3h-8a5.2 5.2 0 0 0-5.2 5.2v88.2c0 2.8 2.3 5.2 5.2 5.2h39.9c2.8 0 5.2-2.3 5.2-5.2V34.9c0-2.8-2.3-5.2-5.2-5.2h-8v-4.3h8c5.2 0 9.5 4.3 9.5 9.5v88.2c0 5.2-4.3 9.5-9.5 9.5z"/><path class="st0" d="M47 43h54.6v4.3H47zM47 110.7h54.6v4.3H47z"/><g><path class="st5" d="M76.6 77.2h16.3v26.2H76.6zM55.7 77.2H72v26.2H55.7z"/><path class="st2" d="M55.7 54.6H93v18H55.7z"/></g></g></g><g id="Layer_10" class="st3"><g class="st4"><path class="st0" d="M91.4 120.8H64.3v-10.9h4.3v6.6h18.5v-6.6h4.3z"/><path class="st0" d="M59.2 116.5h37.4v4.3H59.2zM127.7 68.8h-4.3V31.9a1 1 0 0 0-.4-.8c-.3-.3-.7-.3-.8-.3H33.5c-.2 0-.6.1-.9.4-.2.2-.3.5-.3.8v29.1H28V31.9c0-1.5.6-2.9 1.6-3.9a5.3 5.3 0 0 1 3.9-1.6h88.7c1.5 0 2.9.6 3.9 1.6s1.6 2.4 1.6 3.9v36.9z"/><path class="st1" d="M111.6 72.4c0-2 1.6-3.6 3.6-3.6h2.6V58.5h-16.2v26.8h10V72.4zM80.4 58.5h16.2v26.8H80.4zM59.2 58.5h16.2v26.8H59.2z"/><path class="st2" d="M38 36.4h79.8v16.9H38z"/><path class="st0" d="M113.8 106.6H51.9v-4.4h57.5v-6.9H51.9V91h61.9z"/><g><path class="st0" d="M120.6 109.5h10v4.3h-10z"/><path class="st0" d="M136 120.8h-20.8a5.7 5.7 0 0 1-5.7-5.7V72.4c0-3.2 2.6-5.7 5.7-5.7H136c3.2 0 5.7 2.6 5.7 5.7v42.7c0 3.1-2.6 5.7-5.7 5.7zM115.2 71c-.7 0-1.4.6-1.4 1.4v42.7c0 .7.6 1.4 1.4 1.4H136c.8 0 1.4-.6 1.4-1.4V72.4c0-.8-.6-1.4-1.4-1.4h-20.8z"/><g><path class="st2" d="M117.7 74.9h15.7V88h-15.7z"/><path class="st1" d="M117.7 100.3h15.7v5.3h-15.7zM117.7 91.4h15.7v5.3h-15.7z"/></g></g><g><path class="st0" d="M24.1 109.5h13.6v4.3H24.1z"/><path class="st0" d="M46.6 120.8H15.2a7.5 7.5 0 0 1-7.5-7.5v-47c0-4.2 3.4-7.5 7.5-7.5h31.4c4.2 0 7.5 3.4 7.5 7.5v47c0 4.1-3.4 7.5-7.5 7.5zM15.2 63.1a3.2 3.2 0 0 0-3.2 3.2v47c0 1.8 1.4 3.2 3.2 3.2h31.4c1.8 0 3.2-1.4 3.2-3.2v-47c0-1.8-1.4-3.2-3.2-3.2H15.2z"/><g><path class="st1" d="M32.6 85h12.3v19.8H32.6zM16.8 85h12.3v19.8H16.8z"/><path class="st2" d="M16.8 67.9H45v13.6H16.8z"/></g></g></g></g></svg>