<svg id="Layer_1" xmlns="http://www.w3.org/2000/svg" viewBox="0 0 144 144"><style>.st6{fill:#979fef}.st7{fill:#61729b}.st8{fill:#737ee6}.st9{fill:#47568c}</style><path d="M111.8 142.5H32.2c-17 0-30.7-13.7-30.7-30.7V1.5h110.3c17 0 30.7 13.7 30.7 30.7v79.6c0 17-13.7 30.7-30.7 30.7z" fill="#fff"/><path d="M93.8 107.2V119a3 3 0 0 1-3 3H31.6a3 3 0 0 1-3-3V36.1a3 3 0 0 1 3-3h12a3 3 0 0 1 3 3l20.7 31.7 23.6 36.4a3 3 0 0 1 2.9 3z" fill="#76e2f8"/><path d="M93.8 107.2V119a3 3 0 0 1-3 3H67.2V67.9l23.6 36.4a3 3 0 0 1 3 2.9z" fill="#25d9f8"/><path d="M105.7 45v62.3a3 3 0 0 1-3 3H43.6a3 3 0 0 1-3-3V24.1a3 3 0 0 1 3-3H82L87.9 39l17.8 6z" fill="#f2f2fc"/><path d="M105.7 45v62.3a3 3 0 0 1-3 3H67.2v-89H82l5.9 17.9 17.8 5.8z" fill="#d8d8fc"/><path d="M128.6 54.2l-8.3-8.3c-1.2-1.2-3-1.1-4.2 0l-6.3 6.3-.3 8.1 5.3 5.3 7.5-.8 6.3-6.3c1.2-1.3 1.2-3.2 0-4.3z" fill="#2c3b73"/><path class="st6" d="M67.2 33.2a9 9 0 0 0 0 17.8 9 9 0 0 0 0-17.8z"/><path class="st6" d="M67.2 50.9c-8.2 0-14.8 6.6-14.8 14.8v5.9a3 3 0 0 0 3 3H79a3 3 0 0 0 3-3v-5.9c0-8.2-6.6-14.8-14.8-14.8z"/><path class="st7" d="M82 83.4a3 3 0 0 1-3 3H55.4a3 3 0 0 1-3-3 3 3 0 0 1 3-3H79c1.7.1 3 1.4 3 3zM82 95.2a3 3 0 0 1-3 3H55.4a3 3 0 0 1-3-3 3 3 0 0 1 3-3H79c1.7.1 3 1.4 3 3z"/><path class="st8" d="M67.2 50.9V33.2a8.8 8.8 0 1 1 0 17.7z"/><path class="st9" d="M82 95.2a3 3 0 0 1-3 3H67.2v-5.9H79a3 3 0 0 1 3 2.9zM79.1 86.4H67.2v-5.9H79a3 3 0 0 1 3 3c0 1.6-1.3 2.9-2.9 2.9z"/><path class="st8" d="M82 65.7v5.9a3 3 0 0 1-3 3H67.2V50.9c8.2 0 14.8 6.6 14.8 14.8z"/><path d="M82 42a3 3 0 0 0 3 3h20.7L82 21.2V42z" fill="#a3a3d1"/><path d="M86.7 87.6c-.8-.8-1.1-2-.7-3l4.1-12.5c.1-.4.4-.8.7-1.2l19-18.8 12.6 12.6-19 18.8c-.3.3-.7.6-1.2.7l-12.5 4.1c-1.1.4-2.2.1-3-.7z" fill="#c3353c"/></svg>