<svg id="Layer_1" xmlns="http://www.w3.org/2000/svg" viewBox="0 0 144 144"><style>.st1{fill:#a9d8e7}.st3{fill:#c3353c}.st5{fill:#efe2dd}</style><path d="M111.8 142.5H32.2c-17 0-30.7-13.7-30.7-30.7V1.5h110.3c17 0 30.7 13.7 30.7 30.7v79.6c0 17-13.7 30.7-30.7 30.7z" fill="#fff"/><path class="st1" d="M111.1 35.8H25.7a2.7 2.7 0 0 0-2.7 2.7v58.4c0 1.5 1.2 2.7 2.7 2.7h30.9l9.9 9.8c.5.5 1.2.8 1.9.8s1.4-.3 1.9-.8l9.9-9.8h30.9c1.5 0 2.7-1.2 2.7-2.7V38.5c-.1-1.5-1.2-2.7-2.7-2.7z"/><path class="st1" d="M113.7 38.5v58.4c0 1.5-1.2 2.7-2.7 2.7H80.2l-9.9 9.8c-.5.5-1.2.8-1.9.8V35.8h42.7c1.5 0 2.6 1.2 2.6 2.7z"/><path class="st1" d="M68.4 51.1a21.2 21.2 0 1 0-23.5 35.1L55.5 84l9.9 2.2c1.1-.6 2.1-1.3 3-2.1a21 21 0 0 0 0-33z"/><path class="st1" d="M76.4 67.7c0 6.7-3.1 12.7-8 16.5V51.1c4.9 3.9 8 9.9 8 16.6z"/><circle class="st1" cx="84.4" cy="59.7" r="2.7"/><circle class="st1" cx="95" cy="59.7" r="2.7"/><path class="st1" d="M55.1 73c-4.4 0-8-3.6-8-8s3.6-8 8-8 8 3.6 8 8-3.6 8-8 8zM95 73H84.4a2.7 2.7 0 0 1-2.7-2.7c0-1.5 1.2-2.7 2.7-2.7H95c1.5 0 2.7 1.2 2.7 2.7-.1 1.5-1.3 2.7-2.7 2.7zM95 83.6H84.4a2.7 2.7 0 0 1-2.7-2.7c0-1.5 1.2-2.7 2.7-2.7H95c1.5 0 2.7 1.2 2.7 2.7-.1 1.5-1.3 2.7-2.7 2.7zM65.8 83.6c0 .9-.1 1.8-.4 2.7a20.8 20.8 0 0 1-20.6 0c-.3-.9-.4-1.8-.4-2.7C44.4 77.8 49.2 73 55 73s10.8 4.8 10.8 10.6z"/><g><path d="M119.6 45.1H34.3a2.7 2.7 0 0 0-2.7 2.7v58.4c0 1.5 1.2 2.7 2.7 2.7h30.9l9.9 9.8c.5.5 1.2.8 1.9.8s1.4-.3 1.9-.8l9.9-9.8h30.9c1.5 0 2.7-1.2 2.7-2.7V47.8a2.8 2.8 0 0 0-2.8-2.7z" fill="#d3636e"/><path class="st3" d="M122.3 47.8v58.4c0 1.5-1.2 2.7-2.7 2.7H88.7l-9.9 9.8c-.5.5-1.2.8-1.9.8V45.1h42.7c1.5 0 2.7 1.2 2.7 2.7z"/><path d="M77 60.4a21.2 21.2 0 1 0-23.5 35.1l10.6-2.2 9.9 2.2c1.1-.6 2.1-1.3 3-2.1 4.9-3.8 8-9.8 8-16.5s-3.2-12.6-8-16.5z" fill="#fff5f5"/><path class="st5" d="M84.9 77c0 6.7-3.1 12.7-8 16.5V60.4c4.9 3.9 8 9.9 8 16.6z"/><circle class="st5" cx="92.9" cy="69" r="2.7"/><circle class="st5" cx="103.5" cy="69" r="2.7"/><path class="st3" d="M63.7 82.3a8 8 0 0 1-8-8c0-4.4 3.6-8 8-8s8 3.6 8 8a8 8 0 0 1-8 8z"/><path class="st5" d="M103.5 82.3H92.9a2.7 2.7 0 0 1-2.7-2.7c0-1.5 1.2-2.7 2.7-2.7h10.6c1.5 0 2.7 1.2 2.7 2.7 0 1.5-1.2 2.7-2.7 2.7zM103.5 92.9H92.9c-1.5 0-2.7-1.2-2.7-2.7s1.2-2.7 2.7-2.7h10.6c1.5 0 2.7 1.2 2.7 2.7s-1.2 2.7-2.7 2.7z"/><path class="st3" d="M74.3 92.9c0 .9-.1 1.8-.4 2.7a20.8 20.8 0 0 1-20.6 0c-.3-.9-.4-1.8-.4-2.7 0-5.8 4.8-10.6 10.6-10.6s10.8 4.8 10.8 10.6z"/></g></svg>