<svg id="Layer_1" xmlns="http://www.w3.org/2000/svg" viewBox="0 0 144 144"><style>.st5{opacity:.93;fill:#313941;enable-background:new}</style><path d="M111.8 142.5H32.2c-17 0-30.7-13.7-30.7-30.7V1.5h110.3c17 0 30.7 13.7 30.7 30.7v79.6c0 17-13.7 30.7-30.7 30.7z" fill="#fff"/><path d="M103.7 41.2A37 37 0 0 0 72 23.5a37 37 0 0 0-33 54.1l25.6 39c1.6 2.5 4.4 4 7.4 4s5.7-1.5 7.4-4l25.6-39 .2-.3a37.1 37.1 0 0 0-1.5-36.1z" fill="#c3353c"/><path d="M72 23.5a37 37 0 0 0-33 54.1l25.6 39c1.6 2.5 4.4 4 7.4 4V23.5z" fill="#ff3f5c"/><ellipse cx="72" cy="60.2" rx="21.9" ry="21.9" fill="#a8d3d8"/><path d="M72 38.3a21.9 21.9 0 1 0 0 43.8V38.3z" fill="#f0f0f0"/><path class="st5" d="M50.3 52.4H49v15.4c0 .7.6 1.3 1.3 1.3s1.3-.6 1.3-1.3v-14c.1-.8-.5-1.4-1.3-1.4zm45.8 14.9l-6.6-14c-.1-.3-.4-.6-.8-.7-.7-.2-1.4.1-1.7.8v1l6.6 14c.2.5.7.8 1.2.8H97l-.9-1.9z"/><path class="st5" d="M60 66.5h-9.6c-.7 0-1.3.6-1.3 1.3s.6 1.3 1.3 1.3h11v-1.3c-.1-.7-.7-1.3-1.4-1.3zm17.2-7h-6.3c-.7 0-1.4.6-1.4 1.4v1.4h7.7c.7 0 1.4-.6 1.4-1.4 0-.8-.7-1.4-1.4-1.4zm12.4-6.1c-.1-.3-.4-.6-.7-.8-.3-.1-.7-.2-1 0-.3.1-.6.4-.8.7l-7.5 15.9h2.1c.5 0 1-.3 1.2-.8l6.6-14c.2-.3.2-.7.1-1z"/><path class="st5" d="M77.2 59.5c-.7 0-1.4.6-1.4 1.4a5.7 5.7 0 1 1-5.7-5.7 6 6 0 0 1 4 1.6c.5.5 1.4.5 1.9 0l1-.7-.1-.2a7 7 0 0 0-.8-1l-.3-.2a8 8 0 0 0-3.8-1.9h-1.6c-4.7 0-8.4 3.7-8.4 8.4a8.4 8.4 0 1 0 16.8 0c-.2-1.1-.9-1.7-1.6-1.7z"/><path d="M51.7 67.9v-1.3h-1.3c-.7 0-1.3.6-1.3 1.3 0 .7.6 1.3 1.3 1.3s1.3-.6 1.3-1.3zm24.2-7c0 .5 0 .9-.2 1.4h1.5c.7 0 1.4-.6 1.4-1.4s-.6-1.4-1.4-1.4-1.3.6-1.3 1.4zm13.6-7.6c0-.1 0-.1 0 0l-.1-.2V53h-.1-.1-.1-.2-.5-.1-.1-.1-.1l-.1.1h-.1v.4 1l1.2 2.6 1.2-2.6c.1-.3.2-.7 0-1l-.7-.2z" fill="#313941"/></svg>