<svg xmlns="http://www.w3.org/2000/svg" viewBox="0 0 144 144"><path d="M111.8 142.5H32.2c-17 0-30.7-13.7-30.7-30.7V1.5h110.3c17 0 30.7 13.7 30.7 30.7v79.6c0 17-13.7 30.7-30.7 30.7z" fill="#fff"/><path d="M72 23c-26.9 0-49 22.1-49 49s22.1 49 49 49 49-22.1 49-49-22.1-49-49-49z" fill="#57555c"/><path d="M121 72c0 26.9-22.1 49-49 49V23c26.9 0 49 22.1 49 49z" fill="#313941"/><path d="M98.5 45.8l-.1-.1-.1-.1a37 37 0 0 0-52.4 0l-.1.1-.1.1a37.1 37.1 0 0 0 5.9 57.3c1.3.9 3.1.5 4-.8.9-1.3.5-3.1-.8-4-8-5.3-13.1-14-14-23.4h2.7a2.9 2.9 0 0 0 0-5.8h-2.7c.6-6.5 3.2-12.5 7.2-17.3l1.9 1.9c.6.6 1.3.8 2 .8s1.5-.3 2-.8a3 3 0 0 0 0-4.1L52 47.7c4.8-4 10.8-6.6 17.3-7.2v2.7a2.9 2.9 0 0 0 5.8 0v-2.7c6.5.6 12.5 3.2 17.3 7.2l-1.9 1.9a3 3 0 0 0 0 4.1c.6.6 1.3.8 2 .8a3 3 0 0 0 2-.8l1.9-1.9c4 4.8 6.6 10.8 7.2 17.3h-2.7a2.9 2.9 0 0 0 0 5.8h2.7a31.3 31.3 0 0 1-14 23.4 2.9 2.9 0 0 0 1.6 5.3 3 3 0 0 0 1.6-.5A37.4 37.4 0 0 0 109.5 72a38 38 0 0 0-11-26.2z" fill="#a9d8e7"/><path d="M78.2 82H66.4l-.6-.1a3 3 0 0 1-2.2-3.4l5.6-24.4a2.9 2.9 0 0 1 2.8-2.2c1.2-.1 2.5.7 2.8 2.2l5.6 24.4a3 3 0 0 1-2.2 3.5z" fill="#d3636e"/><path d="M78.2 82H72V52c1.2-.1 2.5.7 2.8 2.2l5.6 24.4c.3 1.5-.6 3-2.2 3.4z" fill="#c3353c"/><path d="M72 74.9a11.5 11.5 0 1 0 0 23 11.5 11.5 0 0 0 0-23z" fill="#cae8f9"/><path d="M83.5 86.4c0 6.3-5.2 11.5-11.5 11.5v-23c6.3 0 11.5 5.1 11.5 11.5z" fill="#b7e0f6"/></svg>